<svg id="Layer_1" height="512" viewBox="0 0 64 64" width="512" xmlns="http://www.w3.org/2000/svg" data-name="Layer 1"><path d="m20.833 44.044 4.067 15.465a2 2 0 0 0 1.934 1.491h10.444a2 2 0 0 0 1.934-1.491l4.067-15.465z" fill="#b6c384"/><path d="m35.092 57.815 5.148-8.56c2.6-4.319 4.91-9.208 8.846-12.477a7.99 7.99 0 0 0 2-9.8 8 8 0 0 0 -4.225-14.148c-.027 0-.053 0-.08 0a7.121 7.121 0 0 0 .185-.99 7.008 7.008 0 0 0 -7.2-7.733 4.731 4.731 0 0 0 -.877.126l-6.119 1.367a5.182 5.182 0 0 1 -2.957-.242 34.267 34.267 0 0 0 -5.024-1.229 6.961 6.961 0 0 0 -7.458 8.694c-.027 0-.053 0-.08 0a8 8 0 0 0 -4.226 14.143 7.99 7.99 0 0 0 2 9.805c3.936 3.269 6.249 8.158 8.846 12.477l5.148 8.56" fill="#79a837"/><path d="m47.53 12.936c-.22-.043-.442-.082-.669-.106-.027 0-.053 0-.08 0 .042-.165.063-.338.095-.507a9.942 9.942 0 0 0 -6.476-2.363c-.032 0-.064 0-.1 0a7.316 7.316 0 0 0 .1-1.124 7.452 7.452 0 0 0 -1.6-4.591l-6.03 1.355a5.182 5.182 0 0 1 -2.957-.242 31.246 31.246 0 0 0 -4.581-1.148 7.46 7.46 0 0 0 -1.632 4.63 7.316 7.316 0 0 0 .1 1.124c-.032 0-.064 0-.1 0a9.947 9.947 0 0 0 -6.379 2.277c.035.2.062.4.11.589-.027 0-.053 0-.08 0-.272.029-.539.072-.8.126a8.51 8.51 0 0 0 .322 12.259 8.489 8.489 0 0 0 -1.573 4.905 8.634 8.634 0 0 0 2.723 6.251 22.085 22.085 0 0 1 5.4 7.757l4.833 12.243.374.629h7.052l.052-.087 5.047-12.785a22.085 22.085 0 0 1 5.4-7.757 8.634 8.634 0 0 0 2.719-6.251 8.489 8.489 0 0 0 -1.572-4.905 8.509 8.509 0 0 0 .3-12.279z" fill="#6e9932"/><path d="m35 53 4.234-11.493a19.815 19.815 0 0 1 4.5-6.926 7.989 7.989 0 0 0 .959-9.961 8 8 0 0 0 -5.693-13.62c-.027 0-.053 0-.08 0a7 7 0 1 0 -13.84 0c-.027 0-.053 0-.08 0a8 8 0 0 0 -5.69 13.62 7.989 7.989 0 0 0 .959 9.961 19.815 19.815 0 0 1 4.5 6.926l4.231 11.493" fill="#79a837"/><path d="m34.98 59.98-.94-46.98a2.04 2.04 0 0 0 -4.08 0l-.429 21.469-.511 25.511a1 1 0 0 0 1 1.02h3.96a1 1 0 0 0 1-1.02z" fill="#d0dba7"/><path d="m47.954 12 .006-.054a8 8 0 0 0 -7.113-8.8 7.834 7.834 0 0 0 -1.62-.008 1 1 0 1 0 .193 1.99 6.1 6.1 0 0 1 1.216.006 6 6 0 0 1 5.336 6.6 6.245 6.245 0 0 1 -.16.852.977.977 0 0 0 .133.721 9.052 9.052 0 0 0 -5.945-3.242v-.065a8 8 0 0 0 -16 0v.055a8.979 8.979 0 0 0 -5.687 2.928 1 1 0 0 0 -.013-.4 5.881 5.881 0 0 1 -.16-.849 6 6 0 0 1 5.337-6.6 6.092 6.092 0 0 1 1.215-.006 1 1 0 0 0 .194-1.99 8.008 8.008 0 0 0 -8.735 8.8l.006.054a9 9 0 0 0 -4.349 15.232 8.987 8.987 0 0 0 2.58 10.321 26.754 26.754 0 0 1 5.512 6.896l4.03 15.323a3 3 0 0 0 2.904 2.236h7.145c.026 0 .05-.006.076-.007s.024.007.037.007h3.186a3 3 0 0 0 2.9-2.237l4.029-15.321a26.745 26.745 0 0 1 5.517-6.894 8.993 8.993 0 0 0 2.576-10.321 9 9 0 0 0 -4.346-15.227zm-22.988 0a1.063 1.063 0 0 0 .87-.34 1 1 0 0 0 .234-.8 6 6 0 1 1 11.86 0 1.029 1.029 0 0 0 .274.8 1.087 1.087 0 0 0 .796.34 7 7 0 0 1 4.979 11.918 1 1 0 0 0 -.125 1.25 6.992 6.992 0 0 1 -.838 8.715 20.753 20.753 0 0 0 -4.72 7.278l-2.554 6.932-.187-9.338 4.354-2.192a1 1 0 1 0 -.9-1.787l-3.5 1.762-.14-6.984 4.49-1.968a1 1 0 1 0 -.8-1.832l-3.731 1.635-.115-5.765 4.648-2.038a1 1 0 1 0 -.8-1.832l-3.889 1.7-.13-6.48a3.041 3.041 0 0 0 -6.08 0l-.054 2.71-3.434-1.584a1 1 0 1 0 -.841 1.814l4.229 1.96-.115 5.743-3.274-1.517a1 1 0 0 0 -.841 1.814l4.068 1.886-.14 7-3.029-1.666a1 1 0 0 0 -.965 1.752l3.949 2.172-.261 13.038-2.554-6.935a20.751 20.751 0 0 0 -4.719-7.277 6.992 6.992 0 0 1 -.839-8.716 1 1 0 0 0 -.125-1.25 7 7 0 0 1 4.949-11.918zm5.055 48 .939-46.979a1.04 1.04 0 0 1 2.08 0l.505 25.19.436 21.789zm-14.356-23.991a6.989 6.989 0 0 1 -1.751-8.578 1 1 0 0 0 -.256-1.231 7 7 0 0 1 3.747-12.377.992.992 0 0 0 .31-.093 8.976 8.976 0 0 0 .358 11.014 8.99 8.99 0 0 0 1.48 10.535 18.777 18.777 0 0 1 4.274 6.574l4.235 11.493a.946.946 0 0 0 .088.143l-.018.909-3.4-5.659c-.5-.83-.988-1.681-1.48-2.539-2.104-3.658-4.274-7.44-7.587-10.191zm10.2 23.246-2.217-8.43 4.408 7.327-.036 1.808v.04h-1.19a1 1 0 0 1 -.964-.745zm12.378 0a1 1 0 0 1 -.966.745h-1.3c0-.013 0-.026 0-.039l-.032-1.627 4.513-7.507zm14.738-37.734a6.96 6.96 0 0 1 -2.528 4.679 1 1 0 0 0 -.255 1.232 6.987 6.987 0 0 1 -1.751 8.577c-3.313 2.751-5.485 6.534-7.585 10.192-.492.857-.98 1.708-1.48 2.538l-3.51 5.838-.022-1.077a.891.891 0 0 0 .088-.157l4.235-11.493a18.778 18.778 0 0 1 4.275-6.575 8.99 8.99 0 0 0 1.479-10.534 8.963 8.963 0 0 0 .158-11.27 1.088 1.088 0 0 0 .671.35 7.009 7.009 0 0 1 6.225 7.7z"/></svg>